# xmcd
#
# Track frame offsets:
#	150
#	20477
#	34427
#	56747
#	72102
#	88092
#	98378
#	111782
#	129355
#	146792
#	166688
#	180052
#	201113
#
# Disc length: 2904 seconds
#
# Revision: 1
# Processed by: cddbd v1.5.1PL0 Copyright (c) Steve Scherf et al.
# Submitted via: audiograbber 1.83.01
#
DISCID=a60b560d
DTITLE=The Gourds - Blood of the Ram
DYEAR=2004
DGENRE=Country
TTITLE0=Lower 48
TTITLE1=TTT Gas
TTITLE2=Escalade
TTITLE3=Illegal Oyster
TTITLE4=Arapaho
TTITLE5=Wired Ole Gal
TTITLE6=On Time
TTITLE7=Do 4 U
TTITLE8=Let Him In
TTITLE9=Cracklins
TTITLE10=Spanky
TTITLE11=Blood Of The Ram
TTITLE12=Turd In My Pocket
EXTD=
EXTT0=
EXTT1=
EXTT2=
EXTT3=
EXTT4=
EXTT5=
EXTT6=
EXTT7=
EXTT8=
EXTT9=
EXTT10=
EXTT11=
EXTT12=
PLAYORDER=
